<?xml version="1.0" encoding="UTF-8"?>
<svg width="20px" height="20px" viewBox="0 0 20 20" version="1.1" xmlns="http://www.w3.org/2000/svg" xmlns:xlink="http://www.w3.org/1999/xlink">
    <!-- Generator: Sketch 50.2 (55047) - http://www.bohemiancoding.com/sketch -->
    <title>add_icon</title>
    <desc>Created with Sketch.</desc>
    <defs></defs>
    <g id="Page-1" stroke="none" stroke-width="1" fill="none" fill-rule="evenodd">
        <g transform="translate(-573.000000, -759.000000)">
            <g id="Group-7" transform="translate(481.000000, 213.000000)">
                <g id="Filter-Expanded" transform="translate(72.000000, 346.000000)">
                    <g transform="translate(0.000000, 180.000000)">
                        <rect id="Rectangle-6" x="0" y="0" width="335" height="60"></rect>
                        <path d="M37.0951581,22.9047371 C33.1733891,19.0317543 26.8318051,19.0317543 22.9100361,22.9047371 C19.029988,26.8193649 19.029988,33.1494014 22.9100361,37.0640292 C26.8318051,40.9786569 33.1733891,40.9786569 37.0534372,37.0640292 C40.9752062,33.1494014 40.9752062,26.8193649 37.0951581,22.9047371 Z M36.6779487,30.8172827 C36.6779487,31.0671525 36.5110649,31.2337324 36.2607392,31.2337324 L31.671435,31.2337324 C31.4628303,31.2337324 31.2542255,31.4419573 31.2542255,31.6501822 L31.2542255,36.2311296 C31.2542255,36.4393545 31.0456208,36.6475794 30.837016,36.6475794 L29.1681782,36.6475794 C28.9178525,36.6475794 28.7509687,36.4809995 28.7509687,36.2311296 L28.7509687,31.6501822 C28.7509687,31.4003123 28.5840849,31.2337324 28.3337592,31.2337324 L23.744455,31.2337324 C23.4941293,31.2337324 23.3272455,31.0671525 23.3272455,30.8172827 L23.3272455,29.1514836 C23.3272455,28.9432587 23.5358503,28.7350338 23.744455,28.7350338 L28.3337592,28.7350338 C28.5840849,28.7350338 28.7509687,28.5684539 28.7509687,28.3185841 L28.7509687,23.7376366 C28.7509687,23.5294118 28.9595734,23.3211869 29.1681782,23.3211869 L30.837016,23.3211869 C31.0456208,23.3211869 31.2542255,23.4877668 31.2542255,23.7376366 L31.2542255,28.3185841 C31.2542255,28.5684539 31.4211093,28.7350338 31.671435,28.7350338 L36.2607392,28.7350338 C36.4693439,28.7350338 36.6779487,28.9432587 36.6779487,29.1514836 L36.6779487,30.8172827 Z" id="Mask" fill="#195BDD"></path>
                    </g>
                </g>
            </g>
        </g>
    </g>
</svg>