<?xml version="1.0" encoding="UTF-8"?>
<svg width="220px" height="104px" viewBox="0 0 220 104" version="1.1" xmlns="http://www.w3.org/2000/svg" xmlns:xlink="http://www.w3.org/1999/xlink">
    <!-- Generator: Sketch 50.2 (55047) - http://www.bohemiancoding.com/sketch -->
    <title>ViteLogo</title>
    <desc>Created with Sketch.</desc>
    <defs></defs>
    <g id="Page-1" stroke="none" stroke-width="1" fill="none" fill-rule="evenodd">
        <g id="vite-钱包1" transform="translate(-610.000000, -326.000000)" fill="#FFFFFF">
            <g id="Group-7" transform="translate(481.000000, 266.000000)">
                <g id="Page-1" transform="translate(129.000000, 60.000000)">
                    <polygon id="Fill-1" points="0 25.1525761 30.5777122 103.14211 33.9623732 17.5207207"></polygon>
                    <polygon id="Fill-2" points="41.7235611 16.0511877 31.6511821 103.255312 109.752685 -9.48881683e-05"></polygon>
                    <polygon id="Fill-3" points="100.035662 75.2090264 99.9417223 75.2090264 88.4175543 46.2795217 86.2541041 46.2795217 98.7660579 76.8344607 101.164831 76.8344607 113.72328 46.2795217 111.653769 46.2795217"></polygon>
                    <polygon id="Fill-4" points="125.435516 76.8347454 127.505027 76.8347454 127.505027 46.2788574 125.435516 46.2788574"></polygon>
                    <polygon id="Fill-5" points="139.217359 47.9059997 151.023344 47.9059997 151.023344 76.8345556 153.092855 76.8345556 153.092855 47.9059997 164.946285 47.9059997 164.946285 46.2796165 139.217359 46.2796165"></polygon>
                    <polygon id="Fill-6" points="176.657952 46.2795217 176.657952 76.8344607 199.470966 76.8344607 199.470966 75.2090264 178.727463 75.2090264 178.727463 61.770964 198.012535 61.770964 198.012535 60.1445808 178.727463 60.1445808 178.727463 47.9068537 199.235643 47.9068537 199.235643 46.2795217"></polygon>
                </g>
            </g>
        </g>
    </g>
</svg>