<svg xmlns="http://www.w3.org/2000/svg" xmlns:xlink="http://www.w3.org/1999/xlink" width="1440" height="1024" viewBox="0 0 1440 1024">
  <defs>
    <linearGradient id="bg1-b" x1="-26.239%" x2="127.824%" y1="-41.468%" y2="144.048%">
      <stop offset="0%" stop-color="#1B3BD8"/>
      <stop offset="31.474%" stop-color="#176CE0"/>
      <stop offset="49.184%" stop-color="#0B92E7"/>
      <stop offset="71.324%" stop-color="#0BB6EB"/>
      <stop offset="100%" stop-color="#00E0F2"/>
    </linearGradient>
    <rect id="bg1-a" width="1440" height="1024"/>
  </defs>
  <g fill="none" fill-rule="evenodd">
    <mask id="bg1-c" fill="#fff">
      <use xlink:href="#bg1-a"/>
    </mask>
    <use fill="url(#bg1-b)" xlink:href="#bg1-a"/>
    <path fill="#FAFCFF" d="M-60.5664886,709.884283 C-60.5664886,709.884283 88.30859,619.099336 215.05545,709.442418 C341.802309,799.7855 478.515471,707.033756 478.515471,707.033756 C478.515471,707.033756 696.789875,515.045155 907.823568,701.362604 C1118.85726,887.680053 1217.64821,730.79578 1255.28135,693.957216 C1292.91448,657.118651 1405.1682,571.255011 1599.88964,689.694715 C1794.61109,808.134419 1610.38592,688.159816 1610.38592,688.159816 L1610.38592,1101.97157 L-77,1101.97157 L-60.5664886,709.884283 Z" mask="url(#bg1-c)"/>
    <path fill="#FFF" d="M1780.62255,661.161422 C1780.62255,661.161422 1614.40664,544.846052 1472.89642,660.595297 C1331.3862,776.344541 1178.74882,657.509274 1178.74882,657.509274 C1178.74882,657.509274 935.050006,411.529892 699.435299,650.243288 C463.820592,888.956685 355.317198,694.747122 311.505954,640.755366 C267.69471,586.76361 144.160418,483.547009 -73.2420045,635.294171 C-290.644427,787.041333 -84.9608795,633.32763 -84.9608795,633.32763 L-84.9608795,1109.42783 L1798.97023,1109.42783" mask="url(#bg1-c)" opacity=".1"/>
    <path fill="#FFF" d="M-386.479703,606.445505 C-386.479703,606.445505 -200.581468,468.63278 -42.3144307,605.774749 C115.952606,742.916718 286.664426,602.118369 286.664426,602.118369 C286.664426,602.118369 559.220632,310.677186 822.735464,593.509487 C1086.2503,876.341788 1213.84916,627.036646 1256.60115,582.268011 C1299.35313,537.499377 1443.76277,396.004475 1686.90872,575.79748 C1930.05468,755.590486 1700.01528,573.467484 1700.01528,573.467484 L1700.01528,1102.01636 L-407,1102.01636 L-386.479703,606.445505 Z" mask="url(#bg1-c)" opacity=".1"/>
    <circle cx="1267" cy="86" r="384" fill="#FFF" mask="url(#bg1-c)" opacity=".1"/>
  </g>
</svg>
