<svg xmlns="http://www.w3.org/2000/svg" width="478" height="264" viewBox="0 0 478 264">
  <defs>
    <linearGradient id="bg2-a" x1="-26.239%" x2="127.824%" y1="-41.468%" y2="144.048%">
      <stop offset="0%" stop-color="#1B3BD8"/>
      <stop offset="31.474%" stop-color="#176CE0"/>
      <stop offset="49.184%" stop-color="#0B92E7"/>
      <stop offset="71.324%" stop-color="#0BB6EB"/>
      <stop offset="100%" stop-color="#00E0F2"/>
    </linearGradient>
  </defs>
  <g fill="none" fill-rule="evenodd" transform="translate(-291 -38)">
    <path fill="url(#bg2-a)" d="M837,254.048675 C794.169644,251.505379 767.94559,265.534412 754.197196,272.942958 C733.859688,283.902156 692.328096,330.420137 596.623111,275.140122 C500.918126,219.860107 401.929438,276.822741 401.929438,276.822741 C401.929438,276.822741 339.929238,304.341998 282.448814,277.537387 C245.256134,260.193476 208.324332,261.425411 184,266.994516 L184,0.807588442 L837,0.807588442 L837,254.048675 Z"/>
    <path fill="#FFF" d="M991.682015,263.133844 C991.682015,263.133844 916.327416,228.65797 852.173234,262.966044 C788.019053,297.274119 718.820328,262.051347 718.820328,262.051347 C718.820328,262.051347 608.338571,189.143062 501.521771,259.897709 C394.704972,330.652356 362.33707,285.725566 325.652567,257.085489 C288.968065,228.445412 249.785849,210.488934 151.225656,255.466791 C52.6654636,300.444647 145.912861,254.883908 145.912861,254.883908 L145.912861,396 L1000,396" opacity=".1"/>
    <path fill="#FFF" d="M9.30423375,246.37128 C9.30423375,246.37128 93.5934948,205.595469 165.354324,246.172818 C237.115154,286.750166 314.518649,245.090974 314.518649,245.090974 C314.518649,245.090974 438.100033,158.859818 557.581911,242.543791 C677.06379,326.227765 733.231885,254.008819 754.303616,239.217681 C775.375347,224.426543 839.165717,184.106321 949.412017,237.303191 C1059.65832,290.500061 955.354741,236.613795 955.354741,236.613795 L955.354741,393 L0,393 L9.30423375,246.37128 Z" opacity=".1"/>
  </g>
</svg>
