<svg xmlns="http://www.w3.org/2000/svg" xmlns:xlink="http://www.w3.org/1999/xlink" width="157" height="42" viewBox="0 0 157 42" class="logo" data-v-2007b1fe="" data-v-19764bd5=""><defs data-v-2007b1fe=""><linearGradient id="vitexlogo-c" x1="0%" x2="0%" y1="98.69%" y2="1.416%" data-v-2007b1fe=""><stop offset="0%" stop-color="#1C59F3" data-v-2007b1fe=""></stop> <stop offset="100%" stop-color="#1E37E0" data-v-2007b1fe=""></stop></linearGradient> <polygon id="vitexlogo-b" points="19.204 23.044 21.16 21.445 29.768 24.57 19.204 39.844" data-v-2007b1fe=""></polygon> <filter id="vitexlogo-a" width="155.5%" height="131.9%" x="-25.3%" y="-10.2%" filterUnits="objectBoundingBox" data-v-2007b1fe=""><feOffset dx=".26" dy="1.06" in="SourceAlpha" result="shadowOffsetOuter1" data-v-2007b1fe=""></feOffset> <feGaussianBlur in="shadowOffsetOuter1" result="shadowBlurOuter1" stdDeviation=".8" data-v-2007b1fe=""></feGaussianBlur> <feColorMatrix in="shadowBlurOuter1" values="0 0 0 0 0   0 0 0 0 0   0 0 0 0 0  0 0 0 0.3 0" data-v-2007b1fe=""></feColorMatrix></filter> <filter id="vitexlogo-d" width="168.2%" height="139.1%" x="-31.6%" y="-13.8%" filterUnits="objectBoundingBox" data-v-2007b1fe=""><feGaussianBlur in="SourceAlpha" result="shadowBlurInner1" stdDeviation="1" data-v-2007b1fe=""></feGaussianBlur> <feOffset dy="2" in="shadowBlurInner1" result="shadowOffsetInner1" data-v-2007b1fe=""></feOffset> <feComposite in="shadowOffsetInner1" in2="SourceAlpha" k2="-1" k3="1" operator="arithmetic" result="shadowInnerInner1" data-v-2007b1fe=""></feComposite> <feColorMatrix in="shadowInnerInner1" values="0 0 0 0 1   0 0 0 0 1   0 0 0 0 1  0 0 0 0.260869565 0" data-v-2007b1fe=""></feColorMatrix></filter> <linearGradient id="vitexlogo-g" x1="0%" x2="236.435%" y1="57.376%" y2="3.747%" data-v-2007b1fe=""><stop offset="0%" stop-color="#CCEDFF" data-v-2007b1fe=""></stop> <stop offset="100%" stop-color="#0098FF" data-v-2007b1fe=""></stop></linearGradient> <polygon id="vitexlogo-f" points=".955 14.166 18.112 20.731 19.829 19.501 19.57 8.674" data-v-2007b1fe=""></polygon> <filter id="vitexlogo-e" width="131%" height="148.6%" x="-14.1%" y="-15.5%" filterUnits="objectBoundingBox" data-v-2007b1fe=""><feOffset dx=".26" dy="1.06" in="SourceAlpha" result="shadowOffsetOuter1" data-v-2007b1fe=""></feOffset> <feGaussianBlur in="shadowOffsetOuter1" result="shadowBlurOuter1" stdDeviation=".8" data-v-2007b1fe=""></feGaussianBlur> <feColorMatrix in="shadowBlurOuter1" values="0 0 0 0 0   0 0 0 0 0   0 0 0 0 0  0 0 0 0.3 0" data-v-2007b1fe=""></feColorMatrix></filter> <filter id="vitexlogo-h" width="138.1%" height="159.7%" x="-17.7%" y="-21.1%" filterUnits="objectBoundingBox" data-v-2007b1fe=""><feGaussianBlur in="SourceAlpha" result="shadowBlurInner1" stdDeviation="1" data-v-2007b1fe=""></feGaussianBlur> <feOffset dy="2" in="shadowBlurInner1" result="shadowOffsetInner1" data-v-2007b1fe=""></feOffset> <feComposite in="shadowOffsetInner1" in2="SourceAlpha" k2="-1" k3="1" operator="arithmetic" result="shadowInnerInner1" data-v-2007b1fe=""></feComposite> <feColorMatrix in="shadowInnerInner1" values="0 0 0 0 1   0 0 0 0 1   0 0 0 0 1  0 0 0 0.260869565 0" data-v-2007b1fe=""></feColorMatrix></filter> <linearGradient id="vitexlogo-k" x1="54.533%" x2="2.917%" y1="27.739%" y2="100.532%" data-v-2007b1fe=""><stop offset="0%" stop-color="#0992FF" data-v-2007b1fe=""></stop> <stop offset="100%" stop-color="#002BFF" data-v-2007b1fe=""></stop></linearGradient> <polygon id="vitexlogo-j" points="19.202 5.181 45.735 .955 19.204 20.588" data-v-2007b1fe=""></polygon> <filter id="vitexlogo-i" width="122.1%" height="129.8%" x="-10.1%" y="-9.5%" filterUnits="objectBoundingBox" data-v-2007b1fe=""><feOffset dx=".26" dy="1.06" in="SourceAlpha" result="shadowOffsetOuter1" data-v-2007b1fe=""></feOffset> <feGaussianBlur in="shadowOffsetOuter1" result="shadowBlurOuter1" stdDeviation=".8" data-v-2007b1fe=""></feGaussianBlur> <feColorMatrix in="shadowBlurOuter1" values="0 0 0 0 0   0 0 0 0 0   0 0 0 0 0  0 0 0 0.3 0" data-v-2007b1fe=""></feColorMatrix></filter> <filter id="vitexlogo-l" width="127.1%" height="136.7%" x="-12.6%" y="-12.9%" filterUnits="objectBoundingBox" data-v-2007b1fe=""><feGaussianBlur in="SourceAlpha" result="shadowBlurInner1" stdDeviation="1" data-v-2007b1fe=""></feGaussianBlur> <feOffset dy="2" in="shadowBlurInner1" result="shadowOffsetInner1" data-v-2007b1fe=""></feOffset> <feComposite in="shadowOffsetInner1" in2="SourceAlpha" k2="-1" k3="1" operator="arithmetic" result="shadowInnerInner1" data-v-2007b1fe=""></feComposite> <feColorMatrix in="shadowInnerInner1" values="0 0 0 0 1   0 0 0 0 1   0 0 0 0 1  0 0 0 0.260869565 0" data-v-2007b1fe=""></feColorMatrix></filter> <linearGradient id="vitexlogo-o" x1="87.999%" x2="-53.287%" y1="23.936%" y2="233.078%" data-v-2007b1fe=""><stop offset="0%" stop-color="#CCEDFF" data-v-2007b1fe=""></stop> <stop offset="100%" stop-color="#0098FF" data-v-2007b1fe=""></stop></linearGradient> <polygon id="vitexlogo-n" points="20.115 21.529 34.393 27.03 46.037 1.085" data-v-2007b1fe=""></polygon> <filter id="vitexlogo-m" width="122.6%" height="122.6%" x="-10.3%" y="-7.2%" filterUnits="objectBoundingBox" data-v-2007b1fe=""><feOffset dx=".26" dy="1.06" in="SourceAlpha" result="shadowOffsetOuter1" data-v-2007b1fe=""></feOffset> <feGaussianBlur in="shadowOffsetOuter1" result="shadowBlurOuter1" stdDeviation=".8" data-v-2007b1fe=""></feGaussianBlur> <feColorMatrix in="shadowBlurOuter1" values="0 0 0 0 0   0 0 0 0 0   0 0 0 0 0  0 0 0 0.3 0" data-v-2007b1fe=""></feColorMatrix></filter> <filter id="vitexlogo-p" width="127.8%" height="127.8%" x="-12.9%" y="-9.8%" filterUnits="objectBoundingBox" data-v-2007b1fe=""><feGaussianBlur in="SourceAlpha" result="shadowBlurInner1" stdDeviation="1" data-v-2007b1fe=""></feGaussianBlur> <feOffset dy="2" in="shadowBlurInner1" result="shadowOffsetInner1" data-v-2007b1fe=""></feOffset> <feComposite in="shadowOffsetInner1" in2="SourceAlpha" k2="-1" k3="1" operator="arithmetic" result="shadowInnerInner1" data-v-2007b1fe=""></feComposite> <feColorMatrix in="shadowInnerInner1" values="0 0 0 0 1   0 0 0 0 1   0 0 0 0 1  0 0 0 0.260869565 0" data-v-2007b1fe=""></feColorMatrix></filter></defs> <g fill="none" fill-rule="evenodd" data-v-2007b1fe=""><path fill="#2C2E30" fill-rule="nonzero" d="M67.4770749,10 L61.3922862,25.7720145 L55.0955895,10 L52,10 L61.2708058,32 L70.5416116,10 L67.4770749,10 Z M73.7078229,19.1994467 L73.7078229,31.2244236 L76.176093,31.2244236 L76.176093,19.1994467 L73.7078229,19.1994467 Z M73.4994211,14.6132199 C73.4994211,15.0063881 73.6493352,15.3326717 73.954699,15.6021103 C74.264887,15.8758056 74.6166501,16.0110991 75.0163871,16.0110991 C75.4155232,16.0110991 75.7615925,15.8762669 76.0615289,15.6035974 C76.3578159,15.3342456 76.5035814,15.0073776 76.5035814,14.6132199 C76.5035814,14.2190621 76.3578159,13.8921941 76.0615289,13.6228423 C75.7615925,13.3501728 75.4155232,13.2153406 75.0163871,13.2153406 C74.6166501,13.2153406 74.264887,13.3506341 73.954699,13.6243294 C73.6493352,13.893768 73.4994211,14.2200516 73.4994211,14.6132199 Z M82.0945031,13.7810024 L82.0945031,19.2292184 L79.831856,19.2292184 L79.831856,21.1318267 L82.0945031,21.1318267 L82.0945031,31.2244236 L84.5925449,31.2244236 L84.5925449,21.1318267 L87.9567439,21.1318267 L87.9567439,19.2292184 L84.5925449,19.2292184 L84.5925449,13.7810024 L82.0945031,13.7810024 Z M96.8509319,29.440902 C96.0513026,29.440902 95.3357943,29.260738 94.707027,28.8999699 C94.0786639,28.5394337 93.5783864,28.0391562 93.207942,27.4011686 L93.1167123,27.2440507 L102.924966,23.8051811 C102.528001,22.2104878 101.81493,20.9670342 100.786276,20.0705008 C99.7328277,19.1523582 98.4233845,18.6933283 96.8509319,18.6933283 C95.6258405,18.6933283 94.4998549,18.9796781 93.4704898,19.5526266 C92.4412529,20.1255037 91.6318257,20.9010029 91.0400944,21.8807547 C90.449016,22.8594255 90.153695,23.9390416 90.153695,25.1226202 C90.153695,26.3479375 90.4252919,27.4440251 90.9681461,28.4134076 C91.5101232,29.3812238 92.2787862,30.1402181 93.276652,30.692435 C94.2755558,31.2452265 95.446367,31.5221403 96.7913886,31.5221403 C97.4896612,31.5221403 98.2134032,31.4007071 98.9629806,31.1573378 C99.6669307,30.9287826 100.323433,30.6189888 100.932809,30.2278539 L99.8151649,28.4344257 C98.8586501,29.1043417 97.8696529,29.440902 96.8509319,29.440902 Z M96.6425302,20.5959366 C97.4878773,20.5959366 98.1997741,20.8141823 98.7730771,21.2519774 C99.3394165,21.6844548 99.7768911,22.2505984 100.08465,22.9481854 L100.14916,23.0944089 L92.6466144,25.8650587 L92.6231253,25.6771462 C92.6023612,25.5110331 92.5921934,25.2771745 92.5921934,24.9737618 C92.5921934,23.7066296 92.9726643,22.657764 93.7336962,21.8350267 C94.4968782,21.0099652 95.4698453,20.5959366 96.6425302,20.5959366 Z M122.465798,31.2244236 L115.502125,20.5603881 L115.50146,20.3971171 L122.170759,10 L119.047846,10 L114.085732,18.3508754 L108.639509,10 L105.336173,10 L111.972815,20.1878279 L111.973584,20.3506556 L105.035362,31.2244236 L108.248443,31.2244236 L113.448924,22.4864065 L119.13317,31.2244236 L122.465798,31.2244236 Z" data-v-2007b1fe=""></path> <use fill="#000" filter="url(#vitexlogo-a)" xlink:href="#vitexlogo-b" data-v-2007b1fe=""></use> <use fill="url(#vitexlogo-c)" xlink:href="#vitexlogo-b" data-v-2007b1fe=""></use> <use fill="#000" filter="url(#vitexlogo-d)" xlink:href="#vitexlogo-b" data-v-2007b1fe=""></use> <use fill="#000" filter="url(#vitexlogo-e)" xlink:href="#vitexlogo-f" data-v-2007b1fe=""></use> <use fill="url(#vitexlogo-g)" xlink:href="#vitexlogo-f" data-v-2007b1fe=""></use> <use fill="#000" filter="url(#vitexlogo-h)" xlink:href="#vitexlogo-f" data-v-2007b1fe=""></use> <use fill="#000" filter="url(#vitexlogo-i)" xlink:href="#vitexlogo-j" data-v-2007b1fe=""></use> <use fill="url(#vitexlogo-k)" xlink:href="#vitexlogo-j" data-v-2007b1fe=""></use> <use fill="#000" filter="url(#vitexlogo-l)" xlink:href="#vitexlogo-j" data-v-2007b1fe=""></use> <use fill="#000" filter="url(#vitexlogo-m)" xlink:href="#vitexlogo-n" data-v-2007b1fe=""></use> <use fill="url(#vitexlogo-o)" xlink:href="#vitexlogo-n" data-v-2007b1fe=""></use> <use fill="#000" filter="url(#vitexlogo-p)" xlink:href="#vitexlogo-n" data-v-2007b1fe=""></use></g></svg>